<svg width="200" height="200" fill="none" xmlns="http://www.w3.org/2000/svg"><path fill="#2C6269" d="M100 100h100V0H100z"/><path fill-rule="evenodd" clip-rule="evenodd" d="M100 200C44.772 200 0 155.228 0 100S44.772 0 100 0s100 44.772 100 100-44.772 100-100 100zm0-67c-18.225 0-33-14.775-33-33s14.775-33 33-33 33 14.775 33 33-14.775 33-33 33z" fill="#012F34"/><path fill-rule="evenodd" clip-rule="evenodd" d="M100 56h100v4H100v-4zm0 8h100v4H100v-4zm100 8H100v4h100v-4zm-100 8h100v4H100v-4zm100 8H100v4h100v-4zm-100 8h100v4H100v-4z" fill="#79C8C7"/><path fill-rule="evenodd" clip-rule="evenodd" d="M200 100h-4v4h4v-4zm-11 0h4v4h-4v-4zm0 8h4v4h-4v-4zm4 8h-4v4h4v-4zm-4 8h4v4h-4v-4zm4 8h-4v4h4v-4zm-4 8h4v4h-4v-4zm-3-40h-4v4h4v-4zm0 8h-4v4h4v-4zm-4 8h4v4h-4v-4zm4 8h-4v4h4v-4zm-4 8h4v4h-4v-4zm4 8h-4v4h4v-4zm14-32h-4v4h4v-4zm-21-8h-4v4h4v-4zm0 8h-4v4h4v-4zm-4 8h4v4h-4v-4zm4 8h-4v4h4v-4zm-4 8h4v4h-4v-4zm4 8h-4v4h4v-4zm21-24h-4v4h4v-4zm-28-16h-4v4h4v-4zm0 8h-4v4h4v-4zm-4 8h4v4h-4v-4zm4 8h-4v4h4v-4zm-4 8h4v4h-4v-4zm4 8h-4v4h4v-4zm28-16h-4v4h4v-4zm-35-24h-4v4h4v-4zm0 8h-4v4h4v-4zm-4 8h4v4h-4v-4zm4 8h-4v4h4v-4zm-4 8h4v4h-4v-4zm4 8h-4v4h4v-4zm35-8h-4v4h4v-4zm-42-32h-4v4h4v-4zm0 8h-4v4h4v-4zm-4 8h4v4h-4v-4zm4 8h-4v4h4v-4zm-4 8h4v4h-4v-4zm4 8h-4v4h4v-4zm42 0h-4v4h4v-4zm-49-40h-4v4h4v-4zm0 8h-4v4h4v-4zm-4 8h4v4h-4v-4zm4 8h-4v4h4v-4zm-4 8h4v4h-4v-4zm4 8h-4v4h4v-4z" fill="#F67E7E"/></svg>